<?xml version="1.0" standalone="no"?>
<!DOCTYPE svg PUBLIC "-//W3C//DTD SVG 20010904//EN"
 "http://www.w3.org/TR/2001/REC-SVG-20010904/DTD/svg10.dtd">
<svg version="1.0" xmlns="http://www.w3.org/2000/svg"
 width="1451.000000pt" height="1451.000000pt" viewBox="0 0 1451.000000 1451.000000"
 preserveAspectRatio="xMidYMid meet">
<metadata>
Created by potrace 1.14, written by Peter Selinger 2001-2017
</metadata>
<g transform="translate(0.000000,1451.000000) scale(0.100000,-0.100000)"
fill="#000000" stroke="none">
<path d="M7615 12418 c-15 -90 -146 -1151 -142 -1155 10 -9 141 -23 147 -16 4
5 31 195 59 423 29 228 55 431 58 449 5 32 26 -4 254 -461 l248 -496 48 -6
c26 -4 65 -9 86 -12 34 -5 37 -4 37 18 1 12 34 280 74 595 l73 572 -39 5 c-21
3 -56 9 -78 12 -22 3 -40 2 -40 -3 -1 -4 -27 -210 -59 -458 l-58 -450 -248
497 -249 496 -56 7 c-30 3 -67 8 -82 11 -24 5 -27 2 -33 -28z"/>
<path d="M6665 12411 l-70 -6 -177 -590 c-97 -324 -180 -601 -183 -614 l-6
-24 79 5 c43 2 83 7 88 11 6 3 32 87 59 186 47 173 51 181 75 182 14 0 125 8
247 17 l222 17 82 -172 82 -173 41 0 c23 0 64 3 93 6 l52 7 -290 578 c-225
451 -293 579 -307 577 -9 -1 -48 -4 -87 -7z m157 -432 c59 -130 108 -241 108
-246 0 -11 -367 -39 -377 -29 -3 3 20 95 51 204 48 170 83 311 87 347 0 6 5
-1 12 -15 6 -14 59 -131 119 -261z"/>
<path d="M5385 12160 c-112 -30 -469 -156 -473 -168 -3 -9 365 -1111 375
-1122 8 -8 477 152 548 188 102 51 150 94 186 168 30 60 31 68 27 156 -3 71
-10 104 -27 138 -47 92 -131 153 -229 166 l-50 6 27 39 c38 52 55 117 48 187
-6 76 -34 129 -97 186 -86 76 -193 94 -335 56z m208 -156 c15 -10 39 -43 53
-72 48 -95 16 -185 -83 -232 -74 -35 -336 -121 -344 -112 -9 10 -112 322 -108
326 4 4 300 101 334 109 40 11 121 1 148 -19z m211 -477 c106 -82 107 -246 1
-319 -36 -24 -402 -155 -409 -147 -2 2 -29 83 -61 179 -32 96 -60 180 -62 187
-3 7 63 34 179 72 162 55 190 61 249 59 54 -3 73 -9 103 -31z"/>
<path d="M9097 12158 c-211 -529 -426 -1093 -420 -1098 11 -10 805 -320 819
-320 11 0 57 118 50 129 -3 4 -153 65 -335 136 -182 72 -331 135 -331 140 0 6
31 89 69 185 45 113 74 174 83 172 7 -1 143 -53 303 -116 159 -63 293 -112
296 -110 4 2 17 31 29 65 18 47 20 63 11 69 -7 4 -143 58 -302 120 -159 63
-289 117 -289 122 0 7 119 319 125 326 1 1 145 -54 320 -123 175 -69 324 -124
330 -121 16 6 58 117 48 127 -11 10 -773 309 -789 309 -6 0 -14 -6 -17 -12z"/>
<path d="M3957 11499 l-67 -40 18 -33 c75 -142 577 -1006 583 -1004 38 15 638
366 638 373 0 6 -14 36 -32 67 l-33 57 -253 -145 c-197 -113 -256 -143 -262
-133 -5 8 -122 211 -260 451 -138 241 -253 439 -257 442 -4 2 -37 -14 -75 -35z"/>
<path d="M10452 11060 c-241 -377 -281 -435 -319 -464 -40 -30 -104 -32 -158
-6 -99 48 -124 131 -72 244 15 32 26 60 25 61 -2 2 -31 17 -65 33 -70 36 -67
38 -112 -58 -59 -123 -35 -258 58 -343 56 -51 118 -84 191 -103 124 -31 230
15 326 143 51 68 468 717 479 745 4 10 -14 27 -57 54 -34 21 -65 40 -68 41 -3
2 -105 -154 -228 -347z"/>
<path d="M3176 10899 l-326 -283 28 -30 c16 -17 188 -215 382 -441 194 -225
358 -416 364 -422 9 -10 84 50 331 263 176 152 328 284 339 294 18 18 18 19
-25 69 -24 28 -48 51 -52 51 -5 0 -124 -100 -265 -222 -141 -122 -264 -227
-273 -235 -14 -11 -31 5 -140 132 -68 79 -125 148 -127 153 -1 5 108 104 243
221 l246 212 -42 50 c-22 27 -44 51 -49 54 -4 3 -117 -90 -251 -205 -134 -116
-247 -210 -250 -210 -9 0 -227 252 -229 263 0 4 117 109 260 233 143 124 260
228 260 231 0 7 -81 96 -91 101 -3 1 -153 -124 -333 -279z"/>
<path d="M11040 10609 c-217 -103 -476 -227 -574 -274 l-180 -86 62 -62 63
-62 170 88 170 89 67 -63 c37 -35 118 -112 181 -172 l114 -109 -48 -116 c-26
-65 -60 -146 -74 -181 l-26 -64 65 -59 c36 -32 67 -58 70 -58 4 0 424 1067
466 1182 4 13 -12 33 -56 75 -35 32 -65 59 -69 60 -3 0 -184 -84 -401 -188z
m307 -105 c-30 -65 -80 -183 -113 -261 -32 -79 -62 -143 -66 -143 -8 0 -271
247 -276 259 -1 3 84 49 189 101 105 52 219 111 253 132 33 20 62 35 63 34 2
-1 -21 -56 -50 -122z"/>
<path d="M2442 10158 c-21 -29 -41 -58 -45 -65 -4 -7 131 -110 368 -279 206
-147 374 -268 372 -270 -1 -1 -191 4 -422 11 -231 8 -480 15 -554 16 l-133 3
-49 -66 -48 -66 484 -346 c266 -190 488 -346 492 -346 8 1 95 122 90 126 -1 1
-170 122 -376 268 l-375 266 70 0 c38 0 287 -7 553 -15 321 -11 487 -12 495
-6 7 6 30 35 51 66 33 48 36 58 24 70 -11 10 -633 456 -926 663 l-32 23 -39
-53z"/>
<path d="M11679 9709 c-266 -171 -490 -317 -497 -324 -12 -10 -7 -24 28 -79
26 -40 46 -63 53 -59 7 3 86 53 175 111 l164 105 126 -30 c95 -22 126 -33 124
-44 -2 -8 -62 -161 -134 -340 l-131 -326 54 -87 c30 -47 57 -86 60 -86 4 0 76
181 160 401 85 221 159 403 165 406 6 2 156 -30 333 -71 177 -42 326 -76 331
-76 7 0 -78 143 -107 179 -1 2 -180 43 -397 90 -217 48 -398 89 -401 92 -3 4
99 73 226 155 128 82 237 152 242 156 10 6 -68 138 -83 138 -3 0 -225 -140
-491 -311z"/>
<path d="M1664 8914 c-8 -19 -21 -51 -29 -71 -9 -20 -12 -40 -8 -43 5 -4 196
-81 425 -171 229 -90 414 -167 410 -170 -4 -4 -241 -57 -527 -118 -286 -61
-526 -115 -534 -119 -17 -9 -72 -144 -63 -154 6 -6 1057 -425 1093 -435 11 -3
23 14 43 67 16 39 27 73 25 75 -2 2 -188 76 -413 165 -225 88 -416 165 -424
169 -10 6 -7 10 14 14 292 60 1050 229 1055 234 12 12 61 145 55 150 -2 3
-253 103 -556 223 l-552 218 -14 -34z"/>
<path d="M12755 8928 c-27 -10 -54 -23 -58 -27 -4 -4 24 -88 62 -186 39 -99
69 -180 68 -181 -1 -1 -220 -89 -487 -194 -266 -105 -485 -192 -486 -193 -5
-6 55 -142 64 -145 5 -1 221 80 478 182 258 102 475 186 483 188 10 2 35 -51
84 -175 79 -200 66 -188 162 -147 37 16 46 24 40 38 -109 288 -343 862 -350
861 -5 -1 -32 -10 -60 -21z"/>
<path d="M6115 8126 c-145 -70 -267 -170 -362 -299 l-44 -60 4 -1241 c2 -964
6 -1252 16 -1291 22 -87 53 -188 73 -242 l19 -53 1434 0 1434 0 19 53 c20 54
51 155 73 242 10 39 14 327 16 1291 l4 1241 -45 61 c-95 129 -223 234 -369
302 l-85 40 -1048 0 -1049 0 -90 -44z m2152 -419 c57 -42 135 -129 155 -173 8
-17 -36 -237 -188 -945 l-198 -924 -56 -55 c-32 -31 -86 -70 -122 -88 l-65
-32 -530 0 -530 0 -63 32 c-37 18 -93 59 -132 97 l-68 66 -196 913 c-109 508
-193 923 -190 936 7 28 117 149 170 188 l39 28 957 0 958 0 59 -43z m-1696
-2363 c73 -37 90 -146 33 -214 -70 -82 -214 -53 -245 50 -38 128 89 227 212
164z m1520 0 c73 -37 90 -146 33 -214 -70 -82 -214 -53 -245 50 -38 128 89
227 212 164z"/>
<path d="M12690 7543 c-316 -41 -575 -75 -576 -76 -4 -5 111 -876 116 -881 6
-5 129 10 136 17 2 2 -17 162 -42 357 -24 194 -41 356 -37 360 9 9 381 56 387
49 2 -2 21 -147 43 -322 22 -175 42 -319 44 -321 5 -4 131 13 137 18 2 2 -13
136 -33 298 -21 161 -38 306 -39 323 l-1 29 175 22 c96 12 176 21 176 21 1 -1
21 -155 45 -342 23 -187 45 -343 48 -347 6 -7 131 8 138 16 3 3 -91 758 -102
824 -4 22 -11 32 -23 31 -9 -1 -276 -35 -592 -76z"/>
<path d="M1206 7502 c-3 -15 -8 -52 -11 -82 l-7 -56 374 -47 c414 -53 475 -65
550 -111 83 -50 117 -147 98 -282 -16 -121 -54 -188 -128 -231 -74 -44 -146
-42 -580 13 -210 26 -384 46 -387 43 -5 -6 -27 -151 -23 -155 2 -1 167 -23
368 -49 552 -70 653 -62 770 61 95 100 135 230 128 417 -3 95 -8 121 -30 169
-53 115 -145 185 -294 223 -32 8 -219 35 -414 60 -195 24 -367 47 -382 49 -23
5 -27 1 -32 -22z"/>
<path d="M12226 6299 c-3 -40 -4 -74 -1 -77 3 -3 195 -20 428 -38 232 -18 437
-34 456 -36 31 -3 -18 -33 -451 -277 l-485 -273 -7 -80 c-4 -45 -5 -82 -4 -84
8 -7 1183 -93 1189 -86 9 8 16 138 9 145 -3 3 -196 19 -430 36 -234 18 -437
35 -451 39 -24 6 35 42 452 277 349 196 481 275 484 290 2 11 6 48 8 82 l3 63
-30 5 c-34 5 -1108 85 -1142 85 -19 0 -22 -8 -28 -71z"/>
<path d="M1127 6193 l-39 -4 6 -47 c3 -26 20 -234 36 -462 17 -228 33 -420 35
-426 2 -8 25 -10 72 -7 37 3 69 7 70 8 2 1 -4 88 -13 194 -8 106 -14 194 -12
195 2 2 237 20 523 42 l520 39 -4 80 c-2 44 -4 81 -5 82 -1 1 -231 -16 -511
-37 -281 -22 -516 -40 -522 -40 -17 0 -20 20 -34 218 l-12 172 -36 -2 c-20 -1
-53 -3 -74 -5z"/>
<path d="M5860 4865 c0 -10 85 -146 127 -202 23 -32 74 -90 112 -128 l70 -71
-47 -147 -46 -147 -123 0 -123 0 0 -85 0 -84 94 -3 94 -3 -82 -255 -82 -255
-122 -3 -122 -3 0 -79 0 -80 96 0 c72 0 95 -3 91 -12 -2 -7 -56 -172 -118
-365 l-114 -353 -122 0 -123 0 0 -80 0 -80 95 0 c52 0 95 -3 95 -6 0 -3 -21
-68 -46 -145 -25 -77 -43 -146 -41 -153 4 -11 116 -51 142 -51 5 0 34 79 65
175 l56 175 1579 0 1579 0 55 -170 c29 -93 55 -171 56 -173 5 -6 155 43 155
51 0 8 -75 250 -87 285 -4 9 18 12 91 12 l96 0 0 80 0 80 -122 0 -123 0 -116
363 -117 362 94 3 94 3 0 79 0 79 -121 3 -122 3 -82 255 -82 255 93 3 94 3 0
84 0 85 -122 0 -123 0 -49 155 -49 154 62 64 c34 35 81 90 105 121 41 55 126
191 126 201 0 3 -628 5 -1395 5 -767 0 -1395 -2 -1395 -5z m2374 -552 c21 -65
41 -124 43 -130 4 -10 -202 -13 -1012 -13 -810 0 -1016 3 -1012 13 2 6 22 65
43 130 l38 117 931 0 931 0 38 -117z m184 -567 c45 -140 82 -257 82 -260 0 -3
-556 -6 -1236 -6 -984 0 -1235 3 -1232 13 2 6 40 123 84 260 l79 247 1070 0
1071 0 82 -254z m250 -776 c62 -193 115 -357 119 -365 4 -13 -185 -15 -1522
-15 -1217 0 -1526 3 -1522 13 2 6 56 171 118 364 l114 353 1290 0 1291 0 112
-350z"/>
<path d="M11520 1120 c0 -47 4 -80 10 -80 6 0 10 33 10 80 0 47 -4 80 -10 80
-6 0 -10 -33 -10 -80z"/>
</g>
</svg>
